<?xml version="1.0" encoding="UTF-8" standalone="no"?>
<!DOCTYPE svg PUBLIC "-//W3C//DTD SVG 1.1//EN"
 "http://www.w3.org/Graphics/SVG/1.1/DTD/svg11.dtd">
<!-- Generated by graphviz version 2.47.0 (20210316.0004)
 -->
<!-- Title: dependencies Pages: 1 -->
<svg width="1319pt" height="290pt"
 viewBox="0.00 0.00 1319.00 290.00" xmlns="http://www.w3.org/2000/svg" xmlns:xlink="http://www.w3.org/1999/xlink">
<g id="graph0" class="graph" transform="scale(1 1) rotate(0) translate(4 286)">
<title>dependencies</title>
<polygon fill="white" stroke="transparent" points="-4,4 -4,-286 1315,-286 1315,4 -4,4"/>
<text text-anchor="start" x="634.51" y="-42.4" font-family="Times-12" font-weight="bold" font-size="14.00">Legend</text>
<polygon fill="#ffffb3" stroke="transparent" points="421.5,-10 421.5,-30 441.5,-30 441.5,-10 421.5,-10"/>
<text text-anchor="start" x="445.13" y="-15.4" font-family="Times-12" font-size="14.00"> &#160;Declarations</text>
<polygon fill="#8dd3c7" stroke="transparent" points="534.5,-10 534.5,-30 554.5,-30 554.5,-10 534.5,-10"/>
<text text-anchor="start" x="558.23" y="-15.4" font-family="Times-12" font-size="14.00"> &#160;Module</text>
<polygon fill="#80b1d3" stroke="transparent" points="620.5,-10 620.5,-30 640.5,-30 640.5,-10 620.5,-10"/>
<text text-anchor="start" x="644.28" y="-15.4" font-family="Times-12" font-size="14.00"> &#160;Bootstrap</text>
<polygon fill="#fdb462" stroke="transparent" points="717.5,-10 717.5,-30 737.5,-30 737.5,-10 717.5,-10"/>
<text text-anchor="start" x="741.17" y="-15.4" font-family="Times-12" font-size="14.00"> &#160;Providers</text>
<polygon fill="#fb8072" stroke="transparent" points="813.5,-10 813.5,-30 833.5,-30 833.5,-10 813.5,-10"/>
<text text-anchor="start" x="837.23" y="-15.4" font-family="Times-12" font-size="14.00"> &#160;Exports</text>
<g id="clust31" class="cluster">
<title>cluster_SessionsModule</title>
<polygon fill="none" stroke="black" stroke-dasharray="1,5" points="1125,-70 1125,-274 1303,-274 1303,-70 1125,-70"/>
</g>
<g id="clust34" class="cluster">
<title>cluster_SessionsModule_exports</title>
<polygon fill="none" stroke="black" points="1142,-214 1142,-266 1268,-266 1268,-214 1142,-214"/>
</g>
<g id="clust36" class="cluster">
<title>cluster_SessionsModule_providers</title>
<polygon fill="none" stroke="black" points="1133,-78 1133,-130 1295,-130 1295,-78 1133,-78"/>
</g>
<g id="clust13" class="cluster">
<title>cluster_CommonModule</title>
<polygon fill="none" stroke="black" stroke-dasharray="1,5" points="447,-70 447,-198 575,-198 575,-70 447,-70"/>
</g>
<g id="clust15" class="cluster">
<title>cluster_CommonModule_imports</title>
<polygon fill="none" stroke="black" points="462,-78 462,-130 560,-130 560,-78 462,-78"/>
</g>
<g id="clust7" class="cluster">
<title>cluster_AuthModule</title>
<polygon fill="none" stroke="black" stroke-dasharray="1,5" points="8,-70 8,-274 439,-274 439,-70 8,-70"/>
</g>
<g id="clust12" class="cluster">
<title>cluster_AuthModule_providers</title>
<polygon fill="none" stroke="black" points="16,-78 16,-130 431,-130 431,-78 16,-78"/>
</g>
<g id="clust10" class="cluster">
<title>cluster_AuthModule_exports</title>
<polygon fill="none" stroke="black" points="221,-214 221,-266 351,-266 351,-214 221,-214"/>
</g>
<g id="clust1" class="cluster">
<title>cluster_AppModule</title>
<polygon fill="none" stroke="black" stroke-dasharray="1,5" points="583,-138 583,-266 835,-266 835,-138 583,-138"/>
</g>
<g id="clust3" class="cluster">
<title>cluster_AppModule_imports</title>
<polygon fill="none" stroke="black" points="591,-146 591,-198 827,-198 827,-146 591,-146"/>
</g>
<g id="clust37" class="cluster">
<title>cluster_UsersModule</title>
<polygon fill="none" stroke="black" stroke-dasharray="1,5" points="843,-206 843,-274 1117,-274 1117,-206 843,-206"/>
</g>
<g id="clust40" class="cluster">
<title>cluster_UsersModule_exports</title>
<polygon fill="none" stroke="black" points="999,-214 999,-266 1109,-266 1109,-214 999,-214"/>
</g>
<g id="clust42" class="cluster">
<title>cluster_UsersModule_providers</title>
<polygon fill="none" stroke="black" points="851,-214 851,-266 991,-266 991,-214 851,-214"/>
</g>
<!-- AuthModule -->
<g id="node1" class="node">
<title>AuthModule</title>
<polygon fill="#8dd3c7" stroke="black" points="329.55,-190 326.55,-194 305.55,-194 302.55,-190 242.45,-190 242.45,-154 329.55,-154 329.55,-190"/>
<text text-anchor="middle" x="286" y="-167.8" font-family="Times,serif" font-size="14.00">AuthModule</text>
</g>
<!-- AppModule -->
<g id="node6" class="node">
<title>AppModule</title>
<polygon fill="#8dd3c7" stroke="black" points="695.66,-258 692.66,-262 671.66,-262 668.66,-258 612.34,-258 612.34,-222 695.66,-222 695.66,-258"/>
<text text-anchor="middle" x="654" y="-235.8" font-family="Times,serif" font-size="14.00">AppModule</text>
</g>
<!-- AuthModule&#45;&gt;AppModule -->
<g id="edge1" class="edge">
<title>AuthModule&#45;&gt;AppModule</title>
<path fill="none" stroke="black" d="M329.9,-172C375.16,-172 439.18,-172 439.18,-172 439.18,-172 439.18,-246 439.18,-246 439.18,-246 602.33,-246 602.33,-246"/>
<polygon fill="black" stroke="black" points="602.33,-249.5 612.33,-246 602.33,-242.5 602.33,-249.5"/>
</g>
<!-- HashingProvider  -->
<g id="node7" class="node">
<title>HashingProvider </title>
<polygon fill="#fb8072" stroke="black" points="343.37,-258 228.63,-258 228.63,-222 343.37,-222 343.37,-258"/>
<text text-anchor="middle" x="286" y="-235.8" font-family="Times,serif" font-size="14.00">HashingProvider </text>
</g>
<!-- AuthModule&#45;&gt;HashingProvider  -->
<g id="edge6" class="edge">
<title>AuthModule&#45;&gt;HashingProvider </title>
<path fill="none" stroke="black" stroke-dasharray="5,2" d="M286,-190.22C286,-190.22 286,-211.73 286,-211.73"/>
<polygon fill="black" stroke="black" points="282.5,-211.73 286,-221.73 289.5,-211.73 282.5,-211.73"/>
</g>
<!-- CommonModule -->
<g id="node2" class="node">
<title>CommonModule</title>
<polygon fill="#8dd3c7" stroke="black" points="566.67,-190 563.67,-194 542.67,-194 539.67,-190 455.33,-190 455.33,-154 566.67,-154 566.67,-190"/>
<text text-anchor="middle" x="511" y="-167.8" font-family="Times,serif" font-size="14.00">CommonModule</text>
</g>
<!-- CommonModule&#45;&gt;AppModule -->
<g id="edge2" class="edge">
<title>CommonModule&#45;&gt;AppModule</title>
<path fill="none" stroke="black" d="M511,-190.27C511,-208.56 511,-234 511,-234 511,-234 602.25,-234 602.25,-234"/>
<polygon fill="black" stroke="black" points="602.25,-237.5 612.25,-234 602.25,-230.5 602.25,-237.5"/>
</g>
<!-- DatabaseModule -->
<g id="node3" class="node">
<title>DatabaseModule</title>
<polygon fill="#8dd3c7" stroke="black" points="709.35,-190 706.35,-194 685.35,-194 682.35,-190 598.65,-190 598.65,-154 709.35,-154 709.35,-190"/>
<text text-anchor="middle" x="654" y="-167.8" font-family="Times,serif" font-size="14.00">DatabaseModule</text>
</g>
<!-- DatabaseModule&#45;&gt;AppModule -->
<g id="edge3" class="edge">
<title>DatabaseModule&#45;&gt;AppModule</title>
<path fill="none" stroke="black" d="M654,-190.22C654,-190.22 654,-211.73 654,-211.73"/>
<polygon fill="black" stroke="black" points="650.5,-211.73 654,-221.73 657.5,-211.73 650.5,-211.73"/>
</g>
<!-- SessionsModule -->
<g id="node4" class="node">
<title>SessionsModule</title>
<polygon fill="#8dd3c7" stroke="black" points="1258.77,-190 1255.77,-194 1234.77,-194 1231.77,-190 1151.23,-190 1151.23,-154 1258.77,-154 1258.77,-190"/>
<text text-anchor="middle" x="1205" y="-167.8" font-family="Times,serif" font-size="14.00">SessionsModule</text>
</g>
<!-- SessionsModule&#45;&gt;AppModule -->
<g id="edge4" class="edge">
<title>SessionsModule&#45;&gt;AppModule</title>
<path fill="none" stroke="black" d="M1150.98,-166C1049.13,-166 838.87,-166 838.87,-166 838.87,-166 838.87,-249 838.87,-249 838.87,-249 705.95,-249 705.95,-249"/>
<polygon fill="black" stroke="black" points="705.95,-245.5 695.95,-249 705.95,-252.5 705.95,-245.5"/>
</g>
<!-- SessionsService  -->
<g id="node12" class="node">
<title>SessionsService </title>
<polygon fill="#fb8072" stroke="black" points="1259.7,-258 1150.3,-258 1150.3,-222 1259.7,-222 1259.7,-258"/>
<text text-anchor="middle" x="1205" y="-235.8" font-family="Times,serif" font-size="14.00">SessionsService </text>
</g>
<!-- SessionsModule&#45;&gt;SessionsService  -->
<g id="edge11" class="edge">
<title>SessionsModule&#45;&gt;SessionsService </title>
<path fill="none" stroke="black" stroke-dasharray="5,2" d="M1205,-190.22C1205,-190.22 1205,-211.73 1205,-211.73"/>
<polygon fill="black" stroke="black" points="1201.5,-211.73 1205,-221.73 1208.5,-211.73 1201.5,-211.73"/>
</g>
<!-- UsersModule -->
<g id="node5" class="node">
<title>UsersModule</title>
<polygon fill="#8dd3c7" stroke="black" points="818.92,-190 815.92,-194 794.92,-194 791.92,-190 727.08,-190 727.08,-154 818.92,-154 818.92,-190"/>
<text text-anchor="middle" x="773" y="-167.8" font-family="Times,serif" font-size="14.00">UsersModule</text>
</g>
<!-- UsersModule&#45;&gt;AppModule -->
<g id="edge5" class="edge">
<title>UsersModule&#45;&gt;AppModule</title>
<path fill="none" stroke="black" d="M757.76,-190.22C757.76,-210.37 757.76,-240 757.76,-240 757.76,-240 705.91,-240 705.91,-240"/>
<polygon fill="black" stroke="black" points="705.91,-236.5 695.91,-240 705.91,-243.5 705.91,-236.5"/>
</g>
<!-- UsersService  -->
<g id="node14" class="node">
<title>UsersService </title>
<polygon fill="#fb8072" stroke="black" points="1100.85,-258 1007.15,-258 1007.15,-222 1100.85,-222 1100.85,-258"/>
<text text-anchor="middle" x="1054" y="-235.8" font-family="Times,serif" font-size="14.00">UsersService </text>
</g>
<!-- UsersModule&#45;&gt;UsersService  -->
<g id="edge13" class="edge">
<title>UsersModule&#45;&gt;UsersService </title>
<path fill="none" stroke="black" stroke-dasharray="5,2" d="M818.77,-178C898.4,-178 1054,-178 1054,-178 1054,-178 1054,-211.73 1054,-211.73"/>
<polygon fill="black" stroke="black" points="1050.5,-211.73 1054,-221.73 1057.5,-211.73 1050.5,-211.73"/>
</g>
<!-- AuthService -->
<g id="node8" class="node">
<title>AuthService</title>
<ellipse fill="#fdb462" stroke="black" cx="215" cy="-104" rx="59.11" ry="18"/>
<text text-anchor="middle" x="215" y="-99.8" font-family="Times,serif" font-size="14.00">AuthService</text>
</g>
<!-- AuthService&#45;&gt;AuthModule -->
<g id="edge7" class="edge">
<title>AuthService&#45;&gt;AuthModule</title>
<path fill="none" stroke="black" d="M258.27,-116.47C258.27,-116.47 258.27,-143.97 258.27,-143.97"/>
<polygon fill="black" stroke="black" points="254.77,-143.97 258.27,-153.97 261.77,-143.97 254.77,-143.97"/>
</g>
<!-- JwtStrategy -->
<g id="node9" class="node">
<title>JwtStrategy</title>
<ellipse fill="#fdb462" stroke="black" cx="81" cy="-104" rx="56.76" ry="18"/>
<text text-anchor="middle" x="81" y="-99.8" font-family="Times,serif" font-size="14.00">JwtStrategy</text>
</g>
<!-- JwtStrategy&#45;&gt;AuthModule -->
<g id="edge8" class="edge">
<title>JwtStrategy&#45;&gt;AuthModule</title>
<path fill="none" stroke="black" d="M81,-122.22C81,-142.37 81,-172 81,-172 81,-172 232.27,-172 232.27,-172"/>
<polygon fill="black" stroke="black" points="232.27,-175.5 242.27,-172 232.27,-168.5 232.27,-175.5"/>
</g>
<!-- LocalStrategy -->
<g id="node10" class="node">
<title>LocalStrategy</title>
<ellipse fill="#fdb462" stroke="black" cx="358" cy="-104" rx="65.41" ry="18"/>
<text text-anchor="middle" x="358" y="-99.8" font-family="Times,serif" font-size="14.00">LocalStrategy</text>
</g>
<!-- LocalStrategy&#45;&gt;AuthModule -->
<g id="edge9" class="edge">
<title>LocalStrategy&#45;&gt;AuthModule</title>
<path fill="none" stroke="black" d="M311.29,-116.79C311.29,-116.79 311.29,-143.88 311.29,-143.88"/>
<polygon fill="black" stroke="black" points="307.79,-143.88 311.29,-153.88 314.79,-143.88 307.79,-143.88"/>
</g>
<!-- EnvModule -->
<g id="node11" class="node">
<title>EnvModule</title>
<polygon fill="#8dd3c7" stroke="black" points="552.1,-122 549.1,-126 528.1,-126 525.1,-122 469.9,-122 469.9,-86 552.1,-86 552.1,-122"/>
<text text-anchor="middle" x="511" y="-99.8" font-family="Times,serif" font-size="14.00">EnvModule</text>
</g>
<!-- EnvModule&#45;&gt;CommonModule -->
<g id="edge10" class="edge">
<title>EnvModule&#45;&gt;CommonModule</title>
<path fill="none" stroke="black" d="M511,-122.22C511,-122.22 511,-143.73 511,-143.73"/>
<polygon fill="black" stroke="black" points="507.5,-143.73 511,-153.73 514.5,-143.73 507.5,-143.73"/>
</g>
<!-- SessionsService -->
<g id="node13" class="node">
<title>SessionsService</title>
<ellipse fill="#fdb462" stroke="black" cx="1214" cy="-104" rx="73.01" ry="18"/>
<text text-anchor="middle" x="1214" y="-99.8" font-family="Times,serif" font-size="14.00">SessionsService</text>
</g>
<!-- SessionsService&#45;&gt;SessionsModule -->
<g id="edge12" class="edge">
<title>SessionsService&#45;&gt;SessionsModule</title>
<path fill="none" stroke="black" d="M1205,-121.87C1205,-121.87 1205,-143.54 1205,-143.54"/>
<polygon fill="black" stroke="black" points="1201.5,-143.54 1205,-153.54 1208.5,-143.54 1201.5,-143.54"/>
</g>
<!-- UsersService -->
<g id="node15" class="node">
<title>UsersService</title>
<ellipse fill="#fdb462" stroke="black" cx="921" cy="-240" rx="61.95" ry="18"/>
<text text-anchor="middle" x="921" y="-235.8" font-family="Times,serif" font-size="14.00">UsersService</text>
</g>
<!-- UsersService&#45;&gt;UsersModule -->
<g id="edge14" class="edge">
<title>UsersService&#45;&gt;UsersModule</title>
<path fill="none" stroke="black" d="M867,-231C830.24,-231 788.24,-231 788.24,-231 788.24,-231 788.24,-200.02 788.24,-200.02"/>
<polygon fill="black" stroke="black" points="791.74,-200.02 788.24,-190.02 784.74,-200.02 791.74,-200.02"/>
</g>
</g>
</svg>
